<mxfile host="app.diagrams.net" modified="2024-05-11T03:40:13.555Z" agent="Mozilla/5.0 (Windows NT 10.0; Win64; x64) AppleWebKit/537.36 (KHTML, like Gecko) Chrome/124.0.0.0 Safari/537.36" etag="C52-APHdNAaJSpuBngrY" version="24.4.0" type="github">
  <diagram name="Page-1" id="0783ab3e-0a74-02c8-0abd-f7b4e66b4bec">
    <mxGraphModel dx="794" dy="420" grid="1" gridSize="10" guides="1" tooltips="1" connect="1" arrows="1" fold="1" page="1" pageScale="1" pageWidth="850" pageHeight="1100" background="none" math="0" shadow="0">
      <root>
        <mxCell id="0" />
        <mxCell id="1" parent="0" />
        <mxCell id="1c1d494c118603dd-1" value="金库审批泳道图" style="swimlane;html=1;childLayout=stackLayout;startSize=20;rounded=0;shadow=0;comic=0;labelBackgroundColor=none;strokeWidth=1;fontFamily=Verdana;fontSize=12;align=center;" parent="1" vertex="1">
          <mxGeometry x="40" y="20" width="750" height="990" as="geometry" />
        </mxCell>
        <mxCell id="1c1d494c118603dd-2" value="User" style="swimlane;html=1;startSize=20;" parent="1c1d494c118603dd-1" vertex="1">
          <mxGeometry y="20" width="250" height="970" as="geometry" />
        </mxCell>
        <mxCell id="DOQiQ23jEqSkroOvc0YG-3" value="点击" style="rounded=1;whiteSpace=wrap;html=1;shadow=0;comic=0;labelBackgroundColor=none;strokeWidth=1;fontFamily=Verdana;fontSize=12;align=center;arcSize=50;" vertex="1" parent="1c1d494c118603dd-2">
          <mxGeometry x="70" y="130" width="100" height="30" as="geometry" />
        </mxCell>
        <mxCell id="1c1d494c118603dd-27" style="edgeStyle=orthogonalEdgeStyle;rounded=0;html=1;labelBackgroundColor=none;startArrow=none;startFill=0;startSize=5;endArrow=classicThin;endFill=1;endSize=5;jettySize=auto;orthogonalLoop=1;strokeWidth=1;fontFamily=Verdana;fontSize=12;exitX=0.5;exitY=1;exitDx=0;exitDy=0;" parent="1c1d494c118603dd-2" target="DOQiQ23jEqSkroOvc0YG-3" edge="1">
          <mxGeometry relative="1" as="geometry">
            <mxPoint x="120" y="99" as="sourcePoint" />
          </mxGeometry>
        </mxCell>
        <mxCell id="DOQiQ23jEqSkroOvc0YG-5" value="Actor" style="shape=umlActor;verticalLabelPosition=bottom;verticalAlign=top;html=1;" vertex="1" parent="1c1d494c118603dd-2">
          <mxGeometry x="105" y="30" width="25" height="50" as="geometry" />
        </mxCell>
        <mxCell id="DOQiQ23jEqSkroOvc0YG-29" value="选择审批人" style="rounded=1;whiteSpace=wrap;html=1;shadow=0;comic=0;labelBackgroundColor=none;strokeWidth=1;fontFamily=Verdana;fontSize=12;align=center;arcSize=50;" vertex="1" parent="1c1d494c118603dd-2">
          <mxGeometry x="67.5" y="310" width="100" height="30" as="geometry" />
        </mxCell>
        <mxCell id="DOQiQ23jEqSkroOvc0YG-32" style="edgeStyle=orthogonalEdgeStyle;rounded=0;orthogonalLoop=1;jettySize=auto;html=1;entryX=0;entryY=0.5;entryDx=0;entryDy=0;exitX=0;exitY=0.5;exitDx=0;exitDy=0;exitPerimeter=0;" edge="1" parent="1c1d494c118603dd-2" source="1c1d494c118603dd-23" target="60571a20871a0731-5">
          <mxGeometry relative="1" as="geometry">
            <mxPoint x="120" y="870" as="targetPoint" />
            <Array as="points">
              <mxPoint x="55" y="468" />
              <mxPoint x="55" y="900" />
            </Array>
          </mxGeometry>
        </mxCell>
        <mxCell id="1c1d494c118603dd-23" value="提示：审批中" style="shape=note;whiteSpace=wrap;html=1;rounded=0;shadow=0;comic=0;labelBackgroundColor=none;strokeWidth=1;fontFamily=Verdana;fontSize=12;align=center;size=20;" parent="1c1d494c118603dd-2" vertex="1">
          <mxGeometry x="75" y="440" width="90" height="55" as="geometry" />
        </mxCell>
        <mxCell id="60571a20871a0731-5" value="" style="shape=mxgraph.bpmn.shape;html=1;verticalLabelPosition=bottom;labelBackgroundColor=#ffffff;verticalAlign=top;perimeter=ellipsePerimeter;outline=end;symbol=terminate;rounded=0;shadow=0;comic=0;strokeWidth=1;fontFamily=Verdana;fontSize=12;align=center;" parent="1c1d494c118603dd-2" vertex="1">
          <mxGeometry x="104.5" y="880" width="40" height="40" as="geometry" />
        </mxCell>
        <mxCell id="DOQiQ23jEqSkroOvc0YG-45" style="edgeStyle=orthogonalEdgeStyle;rounded=0;orthogonalLoop=1;jettySize=auto;html=1;" edge="1" parent="1c1d494c118603dd-2" source="DOQiQ23jEqSkroOvc0YG-42" target="60571a20871a0731-5">
          <mxGeometry relative="1" as="geometry" />
        </mxCell>
        <mxCell id="DOQiQ23jEqSkroOvc0YG-42" value="提示：审批中/超时/失败" style="shape=note;whiteSpace=wrap;html=1;rounded=0;shadow=0;comic=0;labelBackgroundColor=none;strokeWidth=1;fontFamily=Verdana;fontSize=12;align=center;size=20;" vertex="1" parent="1c1d494c118603dd-2">
          <mxGeometry x="80" y="740" width="90" height="55" as="geometry" />
        </mxCell>
        <mxCell id="DOQiQ23jEqSkroOvc0YG-4" style="edgeStyle=orthogonalEdgeStyle;rounded=0;orthogonalLoop=1;jettySize=auto;html=1;entryX=0;entryY=0.5;entryDx=0;entryDy=0;" edge="1" parent="1c1d494c118603dd-1" source="DOQiQ23jEqSkroOvc0YG-3" target="60571a20871a0731-8">
          <mxGeometry relative="1" as="geometry" />
        </mxCell>
        <mxCell id="1c1d494c118603dd-3" value="cmcf-admin-fronted" style="swimlane;html=1;startSize=20;" parent="1c1d494c118603dd-1" vertex="1">
          <mxGeometry x="250" y="20" width="250" height="970" as="geometry" />
        </mxCell>
        <mxCell id="60571a20871a0731-8" value="查询本地记录" style="rounded=1;whiteSpace=wrap;html=1;shadow=0;comic=0;labelBackgroundColor=none;strokeWidth=1;fontFamily=Verdana;fontSize=12;align=center;arcSize=50;" parent="1c1d494c118603dd-3" vertex="1">
          <mxGeometry x="75" y="130" width="100" height="30" as="geometry" />
        </mxCell>
        <mxCell id="DOQiQ23jEqSkroOvc0YG-23" style="edgeStyle=orthogonalEdgeStyle;rounded=0;orthogonalLoop=1;jettySize=auto;html=1;" edge="1" parent="1c1d494c118603dd-3" source="DOQiQ23jEqSkroOvc0YG-6" target="DOQiQ23jEqSkroOvc0YG-22">
          <mxGeometry relative="1" as="geometry" />
        </mxCell>
        <mxCell id="DOQiQ23jEqSkroOvc0YG-24" value="是" style="edgeLabel;html=1;align=center;verticalAlign=middle;resizable=0;points=[];" vertex="1" connectable="0" parent="DOQiQ23jEqSkroOvc0YG-23">
          <mxGeometry x="-0.418" y="-1" relative="1" as="geometry">
            <mxPoint as="offset" />
          </mxGeometry>
        </mxCell>
        <mxCell id="DOQiQ23jEqSkroOvc0YG-6" value="是否有本地记录？" style="rhombus;whiteSpace=wrap;html=1;" vertex="1" parent="1c1d494c118603dd-3">
          <mxGeometry x="85" y="190" width="80" height="80" as="geometry" />
        </mxCell>
        <mxCell id="DOQiQ23jEqSkroOvc0YG-22" value="状态是否通过？" style="rhombus;whiteSpace=wrap;html=1;" vertex="1" parent="1c1d494c118603dd-3">
          <mxGeometry x="85" y="537" width="80" height="80" as="geometry" />
        </mxCell>
        <mxCell id="DOQiQ23jEqSkroOvc0YG-28" style="edgeStyle=orthogonalEdgeStyle;rounded=0;orthogonalLoop=1;jettySize=auto;html=1;" edge="1" parent="1c1d494c118603dd-3">
          <mxGeometry relative="1" as="geometry">
            <mxPoint x="407.5000000000002" y="320" as="sourcePoint" />
            <mxPoint x="-80" y="330" as="targetPoint" />
            <Array as="points">
              <mxPoint x="408" y="330" />
            </Array>
          </mxGeometry>
        </mxCell>
        <mxCell id="DOQiQ23jEqSkroOvc0YG-38" value="状态是否通过？" style="rhombus;whiteSpace=wrap;html=1;" vertex="1" parent="1c1d494c118603dd-3">
          <mxGeometry x="85" y="670" width="80" height="80" as="geometry" />
        </mxCell>
        <mxCell id="1c1d494c118603dd-4" value="cmcf-bpm" style="swimlane;html=1;startSize=20;" parent="1c1d494c118603dd-1" vertex="1">
          <mxGeometry x="500" y="20" width="250" height="970" as="geometry" />
        </mxCell>
        <mxCell id="DOQiQ23jEqSkroOvc0YG-8" value="查询本地记录" style="rounded=1;whiteSpace=wrap;html=1;shadow=0;comic=0;labelBackgroundColor=none;strokeWidth=1;fontFamily=Verdana;fontSize=12;align=center;arcSize=50;" vertex="1" parent="1c1d494c118603dd-4">
          <mxGeometry x="110" y="130" width="100" height="30" as="geometry" />
        </mxCell>
        <mxCell id="DOQiQ23jEqSkroOvc0YG-9" value="查询审批人" style="rounded=1;whiteSpace=wrap;html=1;shadow=0;comic=0;labelBackgroundColor=none;strokeWidth=1;fontFamily=Verdana;fontSize=12;align=center;arcSize=50;" vertex="1" parent="1c1d494c118603dd-4">
          <mxGeometry x="110" y="290" width="100" height="30" as="geometry" />
        </mxCell>
        <mxCell id="DOQiQ23jEqSkroOvc0YG-10" value="发起审批" style="rounded=1;whiteSpace=wrap;html=1;shadow=0;comic=0;labelBackgroundColor=none;strokeWidth=1;fontFamily=Verdana;fontSize=12;align=center;arcSize=50;" vertex="1" parent="1c1d494c118603dd-4">
          <mxGeometry x="110" y="453" width="100" height="30" as="geometry" />
        </mxCell>
        <mxCell id="DOQiQ23jEqSkroOvc0YG-25" style="edgeStyle=orthogonalEdgeStyle;rounded=0;orthogonalLoop=1;jettySize=auto;html=1;exitX=1;exitY=1;exitDx=0;exitDy=0;" edge="1" parent="1c1d494c118603dd-4" source="DOQiQ23jEqSkroOvc0YG-6" target="DOQiQ23jEqSkroOvc0YG-9">
          <mxGeometry relative="1" as="geometry">
            <Array as="points">
              <mxPoint x="-30" y="250" />
              <mxPoint x="-30" y="310" />
            </Array>
          </mxGeometry>
        </mxCell>
        <mxCell id="DOQiQ23jEqSkroOvc0YG-26" value="否" style="edgeLabel;html=1;align=center;verticalAlign=middle;resizable=0;points=[];" vertex="1" connectable="0" parent="DOQiQ23jEqSkroOvc0YG-25">
          <mxGeometry x="-0.7477" y="-1" relative="1" as="geometry">
            <mxPoint as="offset" />
          </mxGeometry>
        </mxCell>
        <mxCell id="DOQiQ23jEqSkroOvc0YG-35" value="查询金库审批状态" style="rounded=1;whiteSpace=wrap;html=1;shadow=0;comic=0;labelBackgroundColor=none;strokeWidth=1;fontFamily=Verdana;fontSize=12;align=center;arcSize=50;" vertex="1" parent="1c1d494c118603dd-4">
          <mxGeometry x="110" y="562" width="100" height="30" as="geometry" />
        </mxCell>
        <mxCell id="DOQiQ23jEqSkroOvc0YG-11" style="edgeStyle=orthogonalEdgeStyle;rounded=0;orthogonalLoop=1;jettySize=auto;html=1;entryX=0;entryY=0.5;entryDx=0;entryDy=0;" edge="1" parent="1c1d494c118603dd-1" source="60571a20871a0731-8" target="DOQiQ23jEqSkroOvc0YG-8">
          <mxGeometry relative="1" as="geometry" />
        </mxCell>
        <mxCell id="DOQiQ23jEqSkroOvc0YG-12" style="edgeStyle=orthogonalEdgeStyle;rounded=0;orthogonalLoop=1;jettySize=auto;html=1;entryX=1;entryY=0.5;entryDx=0;entryDy=0;" edge="1" parent="1c1d494c118603dd-1" source="DOQiQ23jEqSkroOvc0YG-8" target="DOQiQ23jEqSkroOvc0YG-6">
          <mxGeometry relative="1" as="geometry">
            <Array as="points">
              <mxPoint x="660" y="250" />
            </Array>
          </mxGeometry>
        </mxCell>
        <mxCell id="DOQiQ23jEqSkroOvc0YG-30" style="edgeStyle=orthogonalEdgeStyle;rounded=0;orthogonalLoop=1;jettySize=auto;html=1;entryX=0.5;entryY=0;entryDx=0;entryDy=0;" edge="1" parent="1c1d494c118603dd-1" source="DOQiQ23jEqSkroOvc0YG-29" target="DOQiQ23jEqSkroOvc0YG-10">
          <mxGeometry relative="1" as="geometry">
            <Array as="points">
              <mxPoint x="118" y="390" />
              <mxPoint x="660" y="390" />
            </Array>
          </mxGeometry>
        </mxCell>
        <mxCell id="DOQiQ23jEqSkroOvc0YG-31" style="edgeStyle=orthogonalEdgeStyle;rounded=0;orthogonalLoop=1;jettySize=auto;html=1;" edge="1" parent="1c1d494c118603dd-1" source="DOQiQ23jEqSkroOvc0YG-10" target="1c1d494c118603dd-23">
          <mxGeometry relative="1" as="geometry" />
        </mxCell>
        <mxCell id="DOQiQ23jEqSkroOvc0YG-33" style="edgeStyle=orthogonalEdgeStyle;rounded=0;orthogonalLoop=1;jettySize=auto;html=1;entryX=1;entryY=0.5;entryDx=0;entryDy=0;exitX=0;exitY=0.5;exitDx=0;exitDy=0;" edge="1" parent="1c1d494c118603dd-1" source="DOQiQ23jEqSkroOvc0YG-22" target="60571a20871a0731-5">
          <mxGeometry relative="1" as="geometry">
            <mxPoint x="190" y="880" as="targetPoint" />
            <Array as="points">
              <mxPoint x="210" y="597" />
              <mxPoint x="210" y="920" />
            </Array>
          </mxGeometry>
        </mxCell>
        <mxCell id="DOQiQ23jEqSkroOvc0YG-34" value="是" style="edgeLabel;html=1;align=center;verticalAlign=middle;resizable=0;points=[];" vertex="1" connectable="0" parent="DOQiQ23jEqSkroOvc0YG-33">
          <mxGeometry x="-0.8599" y="1" relative="1" as="geometry">
            <mxPoint as="offset" />
          </mxGeometry>
        </mxCell>
        <mxCell id="DOQiQ23jEqSkroOvc0YG-36" style="edgeStyle=orthogonalEdgeStyle;rounded=0;orthogonalLoop=1;jettySize=auto;html=1;" edge="1" parent="1c1d494c118603dd-1" source="DOQiQ23jEqSkroOvc0YG-22" target="DOQiQ23jEqSkroOvc0YG-35">
          <mxGeometry relative="1" as="geometry" />
        </mxCell>
        <mxCell id="DOQiQ23jEqSkroOvc0YG-37" value="否" style="edgeLabel;html=1;align=center;verticalAlign=middle;resizable=0;points=[];" vertex="1" connectable="0" parent="DOQiQ23jEqSkroOvc0YG-36">
          <mxGeometry x="-0.7231" y="-2" relative="1" as="geometry">
            <mxPoint as="offset" />
          </mxGeometry>
        </mxCell>
        <mxCell id="DOQiQ23jEqSkroOvc0YG-39" style="edgeStyle=orthogonalEdgeStyle;rounded=0;orthogonalLoop=1;jettySize=auto;html=1;entryX=1;entryY=0.5;entryDx=0;entryDy=0;" edge="1" parent="1c1d494c118603dd-1" source="DOQiQ23jEqSkroOvc0YG-35" target="DOQiQ23jEqSkroOvc0YG-38">
          <mxGeometry relative="1" as="geometry">
            <Array as="points">
              <mxPoint x="650" y="730" />
            </Array>
          </mxGeometry>
        </mxCell>
        <mxCell id="DOQiQ23jEqSkroOvc0YG-40" style="edgeStyle=orthogonalEdgeStyle;rounded=0;orthogonalLoop=1;jettySize=auto;html=1;" edge="1" parent="1c1d494c118603dd-1" source="DOQiQ23jEqSkroOvc0YG-38" target="60571a20871a0731-5">
          <mxGeometry relative="1" as="geometry">
            <Array as="points">
              <mxPoint x="230" y="730" />
              <mxPoint x="230" y="920" />
            </Array>
          </mxGeometry>
        </mxCell>
        <mxCell id="DOQiQ23jEqSkroOvc0YG-41" value="是" style="edgeLabel;html=1;align=center;verticalAlign=middle;resizable=0;points=[];" vertex="1" connectable="0" parent="DOQiQ23jEqSkroOvc0YG-40">
          <mxGeometry x="-0.7147" y="-4" relative="1" as="geometry">
            <mxPoint as="offset" />
          </mxGeometry>
        </mxCell>
        <mxCell id="DOQiQ23jEqSkroOvc0YG-43" style="edgeStyle=orthogonalEdgeStyle;rounded=0;orthogonalLoop=1;jettySize=auto;html=1;entryX=0;entryY=0;entryDx=90;entryDy=37.5;entryPerimeter=0;" edge="1" parent="1c1d494c118603dd-1" source="DOQiQ23jEqSkroOvc0YG-38" target="DOQiQ23jEqSkroOvc0YG-42">
          <mxGeometry relative="1" as="geometry">
            <Array as="points">
              <mxPoint x="375" y="798" />
              <mxPoint x="253" y="798" />
            </Array>
          </mxGeometry>
        </mxCell>
        <mxCell id="DOQiQ23jEqSkroOvc0YG-44" value="否" style="edgeLabel;html=1;align=center;verticalAlign=middle;resizable=0;points=[];" vertex="1" connectable="0" parent="DOQiQ23jEqSkroOvc0YG-43">
          <mxGeometry x="-0.5966" y="2" relative="1" as="geometry">
            <mxPoint as="offset" />
          </mxGeometry>
        </mxCell>
      </root>
    </mxGraphModel>
  </diagram>
</mxfile>
